<svg width="122" height="133" viewBox="0 0 122 133" fill="none" xmlns="http://www.w3.org/2000/svg">
<path d="M54.5698 30.9045C58.3233 28.7965 62.904 28.7966 66.6577 30.9045L88.9223 43.4075C92.813 45.5925 95.2211 49.7079 95.2211 54.1702V78.592C95.2211 83.0541 92.8127 87.1687 88.9223 89.3538L66.6577 101.858C62.9041 103.966 58.3233 103.966 54.5698 101.858L32.3061 89.3538C28.4154 87.1687 26.0073 83.0543 26.0073 78.592V54.1702C26.0073 49.7079 28.4154 45.5925 32.3061 43.4075L54.5698 30.9045ZM55.9848 54.0881C54.3392 53.1384 52.2828 54.3257 52.2827 56.2258V76.5364C52.2829 78.4364 54.3392 79.6238 55.9848 78.6741L73.5746 68.5188C75.2199 67.5686 75.2199 65.1937 73.5746 64.2434L55.9848 54.0881Z" fill="url(#paint0_linear_3450_11605)"/>
<path d="M53.6719 2.258C57.9827 -0.162964 63.2448 -0.162892 67.5557 2.258L77.5273 7.8576L71.6826 18.5939L71.6768 18.6017L67.2246 16.1017C63.1195 13.7963 58.1091 13.7965 54.0039 16.1017L19.3887 35.5422C15.134 37.9318 12.5003 42.4319 12.5 47.3117V85.5529C12.5003 90.4327 15.134 94.9328 19.3887 97.3224L54.0039 116.763C58.1091 119.068 63.1195 119.068 67.2246 116.763L101.839 97.3224C106.093 94.9328 108.728 90.4327 108.729 85.5529V79.8137H121.228V92.1867C121.227 97.311 118.462 102.037 113.994 104.546L67.5557 130.627C63.2448 133.048 57.9827 133.048 53.6719 130.627L7.2334 104.546C2.76561 102.037 0.000174205 97.311 0 92.1867V40.6984C8.97455e-05 35.5739 2.76535 30.8474 7.2334 28.3381L53.6719 2.258ZM114.981 73.5373C116.644 73.5373 118.239 74.1979 119.414 75.3732C120.47 76.429 121.108 77.8235 121.228 79.301V79.8058H108.729V79.4006C108.827 77.8862 109.47 76.4527 110.55 75.3732C111.725 74.1981 113.319 73.5373 114.981 73.5373ZM90.4297 17.1301C91.6434 16.7721 92.9281 16.7932 94.1162 17.174L113.994 28.3381C118.462 30.8474 121.227 35.5739 121.228 40.6984V55.0275C121.108 56.5054 120.47 57.9002 119.414 58.9562C118.239 60.1316 116.644 60.7922 114.981 60.7922C113.319 60.7921 111.725 60.1314 110.55 58.9562C109.471 57.8769 108.827 56.4439 108.729 54.9299V47.3117C108.728 42.4319 106.093 37.9318 101.839 35.5422L87.9365 27.7336C87.1194 26.9741 86.5123 26.0033 86.1914 24.9152C85.7214 23.3209 85.9034 21.6045 86.6982 20.1447C87.4931 18.685 88.8356 17.6004 90.4297 17.1301ZM77.9043 8.06952C79.1771 8.8808 80.1263 10.1285 80.5557 11.5842C81.0258 13.1785 80.8427 14.8948 80.0479 16.3547C79.253 17.8145 77.9106 18.899 76.3164 19.3693C74.7379 19.8349 73.1686 19.407 71.7207 18.6271L71.6768 18.6017L77.5273 7.8576L77.9043 8.06952Z" fill="url(#paint1_linear_3450_11605)"/>
<defs>
<linearGradient id="paint0_linear_3450_11605" x1="26.5159" y1="64.7973" x2="94.0953" y2="64.7973" gradientUnits="userSpaceOnUse">
<stop stop-color="#7D49F9"/>
<stop offset="1" stop-color="#45B7FE"/>
</linearGradient>
<linearGradient id="paint1_linear_3450_11605" x1="8.67408" y1="63.9973" x2="111.614" y2="63.9973" gradientUnits="userSpaceOnUse">
<stop stop-color="#465FFF"/>
<stop offset="1" stop-color="#B44197"/>
</linearGradient>
</defs>
</svg>