
<svg width="145" height="32" viewBox="10 0 550 130" fill="none" xmlns="http://www.w3.org/2000/svg">
<path d="M54.5698 30.9045C58.3233 28.7965 62.904 28.7966 66.6577 30.9045L88.9223 43.4075C92.813 45.5925 95.2211 49.7079 95.2211 54.1702V78.592C95.2211 83.0541 92.8127 87.1687 88.9223 89.3538L66.6577 101.858C62.9041 103.966 58.3233 103.966 54.5698 101.858L32.3061 89.3538C28.4154 87.1687 26.0073 83.0543 26.0073 78.592V54.1702C26.0073 49.7079 28.4154 45.5925 32.3061 43.4075L54.5698 30.9045ZM55.9848 54.0881C54.3392 53.1384 52.2828 54.3257 52.2827 56.2258V76.5364C52.2829 78.4364 54.3392 79.6238 55.9848 78.6741L73.5746 68.5188C75.2199 67.5686 75.2199 65.1937 73.5746 64.2434L55.9848 54.0881Z" fill="url(#paint0_linear_3450_11604)"/>
<path d="M53.6719 2.258C57.9827 -0.162964 63.2448 -0.162892 67.5557 2.258L77.5273 7.8576L71.6826 18.5939L71.6768 18.6017L67.2246 16.1017C63.1195 13.7963 58.1091 13.7965 54.0039 16.1017L19.3887 35.5422C15.134 37.9318 12.5003 42.4319 12.5 47.3117V85.5529C12.5003 90.4327 15.134 94.9328 19.3887 97.3224L54.0039 116.763C58.1091 119.068 63.1195 119.068 67.2246 116.763L101.839 97.3224C106.093 94.9328 108.728 90.4327 108.729 85.5529V79.8137H121.228V92.1867C121.227 97.311 118.462 102.037 113.994 104.546L67.5557 130.627C63.2448 133.048 57.9827 133.048 53.6719 130.627L7.2334 104.546C2.76561 102.037 0.000174205 97.311 0 92.1867V40.6984C8.97455e-05 35.5739 2.76535 30.8474 7.2334 28.3381L53.6719 2.258ZM114.981 73.5373C116.644 73.5373 118.239 74.1979 119.414 75.3732C120.47 76.429 121.108 77.8235 121.228 79.301V79.8058H108.729V79.4006C108.827 77.8862 109.47 76.4527 110.55 75.3732C111.725 74.1981 113.319 73.5373 114.981 73.5373ZM90.4297 17.1301C91.6434 16.7721 92.9281 16.7932 94.1162 17.174L113.994 28.3381C118.462 30.8474 121.227 35.5739 121.228 40.6984V55.0275C121.108 56.5054 120.47 57.9002 119.414 58.9562C118.239 60.1316 116.644 60.7922 114.981 60.7922C113.319 60.7921 111.725 60.1314 110.55 58.9562C109.471 57.8769 108.827 56.4439 108.729 54.9299V47.3117C108.728 42.4319 106.093 37.9318 101.839 35.5422L87.9365 27.7336C87.1194 26.9741 86.5123 26.0033 86.1914 24.9152C85.7214 23.3209 85.9034 21.6045 86.6982 20.1447C87.4931 18.685 88.8356 17.6004 90.4297 17.1301ZM77.9043 8.06952C79.1771 8.8808 80.1263 10.1285 80.5557 11.5842C81.0258 13.1785 80.8427 14.8948 80.0479 16.3547C79.253 17.8145 77.9106 18.899 76.3164 19.3693C74.7379 19.8349 73.1686 19.407 71.7207 18.6271L71.6768 18.6017L77.5273 7.8576L77.9043 8.06952Z" fill="url(#paint1_linear_3450_11604)"/>
<path d="M191.959 38.7228C193.653 38.7228 195.09 39.2874 196.271 40.4168C197.503 41.4948 198.119 42.8551 198.119 44.4978V88.3878C198.119 89.9791 197.503 91.3394 196.271 92.4688C195.09 93.5981 193.653 94.1628 191.959 94.1628C190.265 94.1628 188.802 93.5981 187.57 92.4688C186.389 91.3394 185.799 89.9791 185.799 88.3878V72.0638H165.548V88.3878C165.548 90.0304 164.957 91.4164 163.777 92.5458C162.596 93.6238 161.133 94.1628 159.388 94.1628C157.694 94.1628 156.231 93.5981 154.999 92.4688C153.818 91.3394 153.228 89.9791 153.228 88.3878V44.4978C153.228 42.8551 153.818 41.4948 154.999 40.4168C156.231 39.2874 157.694 38.7228 159.388 38.7228C161.133 38.7228 162.596 39.2874 163.777 40.4168C164.957 41.4948 165.548 42.8551 165.548 44.4978V61.1298H185.799V44.4978C185.799 42.8551 186.389 41.4948 187.57 40.4168C188.802 39.2874 190.265 38.7228 191.959 38.7228Z" fill="#101828"/>
<path d="M215.036 94.1628C213.342 94.1628 211.879 93.5981 210.647 92.4688C209.466 91.3394 208.876 89.9791 208.876 88.3878V44.4978C208.876 42.8551 209.466 41.4948 210.647 40.4168C211.879 39.2874 213.342 38.7228 215.036 38.7228C216.781 38.7228 218.244 39.2874 219.425 40.4168C220.605 41.4948 221.196 42.8551 221.196 44.4978V88.3878C221.196 90.0304 220.605 91.4164 219.425 92.5458C218.244 93.6238 216.781 94.1628 215.036 94.1628Z" fill="#101828"/>
<path d="M252.822 94.9328C250.358 94.9328 248.408 94.3424 246.97 93.1618C245.533 91.9811 244.378 90.2101 243.505 87.8488L228.567 47.0388C228.259 46.1661 228.105 45.3448 228.105 44.5748C228.105 42.8808 228.67 41.4948 229.799 40.4168C230.929 39.2874 232.417 38.7228 234.265 38.7228C237.294 38.7228 239.45 40.5708 240.733 44.2668L252.437 78.5318H253.207L264.988 44.2668C266.272 40.5708 268.428 38.7228 271.456 38.7228C273.304 38.7228 274.767 39.2874 275.845 40.4168C276.975 41.4948 277.539 42.8551 277.539 44.4978C277.539 45.3191 277.385 46.1661 277.077 47.0388L262.216 87.8488C261.344 90.2101 260.163 91.9811 258.674 93.1618C257.237 94.3424 255.286 94.9328 252.822 94.9328Z" fill="#101828"/>
<path d="M320.945 82.3818C322.793 82.3818 324.282 82.9208 325.411 83.9988C326.54 85.0768 327.105 86.3858 327.105 87.9258C327.105 89.4144 326.54 90.6978 325.411 91.7758C324.282 92.8538 322.793 93.3928 320.945 93.3928H290.453C288.708 93.3928 287.245 92.8538 286.064 91.7758C284.883 90.6464 284.293 89.2604 284.293 87.6178V45.2678C284.293 43.6251 284.883 42.2648 286.064 41.1868C287.296 40.0574 288.759 39.4928 290.453 39.4928H320.175C322.023 39.4928 323.512 40.0318 324.641 41.1098C325.77 42.1878 326.335 43.4711 326.335 44.9598C326.335 46.4484 325.77 47.7318 324.641 48.8098C323.512 49.8878 322.023 50.4268 320.175 50.4268H296.613V61.1298H313.168C314.965 61.1298 316.402 61.6688 317.48 62.7468C318.609 63.7734 319.174 65.0054 319.174 66.4428C319.174 67.8801 318.609 69.1378 317.48 70.2158C316.402 71.2424 314.965 71.7558 313.168 71.7558H296.613V82.3818H320.945Z" fill="#101828"/>
<path d="M351.863 94.9328C348.783 94.9328 345.806 94.4451 342.931 93.4698C340.056 92.5458 337.618 91.2111 335.616 89.4658C332.639 86.8991 331.15 84.4094 331.15 81.9968C331.15 80.3541 331.689 79.0194 332.767 77.9928C333.896 76.9148 335.334 76.3758 337.079 76.3758C337.952 76.3758 338.747 76.5811 339.466 76.9918C340.236 77.4024 341.16 78.1468 342.238 79.2248C343.881 80.9701 345.446 82.2021 346.935 82.9208C348.475 83.5881 350.272 83.9218 352.325 83.9218C355.508 83.9218 357.895 83.3571 359.486 82.2278C361.129 81.0471 361.95 79.6098 361.95 77.9158C361.95 76.7351 361.462 75.7341 360.487 74.9128C359.563 74.0914 358.382 73.4241 356.945 72.9108C355.559 72.3461 353.557 71.6788 350.939 70.9088C347.089 69.7794 343.906 68.6758 341.391 67.5978C338.927 66.5198 336.797 64.9284 335 62.8238C333.203 60.7191 332.305 57.9984 332.305 54.6618C332.305 51.5304 333.126 48.7071 334.769 46.1918C336.412 43.6764 338.773 41.6744 341.853 40.1858C344.984 38.6971 348.68 37.9528 352.941 37.9528C356.072 37.9528 359.024 38.4404 361.796 39.4158C364.619 40.3911 366.981 41.7258 368.88 43.4198C370.163 44.6004 371.139 45.8324 371.806 47.1158C372.525 48.3478 372.884 49.5284 372.884 50.6578C372.884 52.3004 372.319 53.6608 371.19 54.7388C370.112 55.7654 368.7 56.2788 366.955 56.2788C365.98 56.2788 365.107 56.0734 364.337 55.6628C363.618 55.2521 362.746 54.4821 361.719 53.3528C360.23 51.7101 358.793 50.5551 357.407 49.8878C356.072 49.2204 354.455 48.8868 352.556 48.8868C350.092 48.8868 348.167 49.4001 346.781 50.4268C345.446 51.4534 344.779 52.7111 344.779 54.1998C344.779 55.3804 345.241 56.3814 346.165 57.2028C347.14 58.0241 348.321 58.7171 349.707 59.2818C351.144 59.7951 353.172 60.4368 355.79 61.2068C359.691 62.3361 362.874 63.4398 365.338 64.5178C367.802 65.5958 369.932 67.1871 371.729 69.2918C373.526 71.3451 374.424 74.0401 374.424 77.3768C374.424 80.6621 373.551 83.6394 371.806 86.3088C370.061 88.9781 367.494 91.0828 364.106 92.6228C360.718 94.1628 356.637 94.9328 351.863 94.9328Z" fill="#101828"/>
<path d="M404.053 39.4928C408.467 39.4928 412.317 40.2371 415.603 41.7258C418.939 43.2144 421.48 45.3448 423.226 48.1168C425.022 50.8374 425.921 54.0458 425.921 57.7418C425.921 61.4378 425.022 64.6718 423.226 67.4438C421.48 70.2158 418.939 72.3461 415.603 73.8348C412.317 75.3234 408.467 76.0678 404.053 76.0678H395.044V88.3878C395.044 90.0304 394.453 91.4164 393.273 92.5458C392.092 93.6238 390.629 94.1628 388.884 94.1628C387.19 94.1628 385.727 93.5981 384.495 92.4688C383.314 91.3394 382.724 89.9791 382.724 88.3878V45.2678C382.724 43.6251 383.314 42.2648 384.495 41.1868C385.675 40.0574 387.138 39.4928 388.884 39.4928H404.053ZM404.053 65.0568C406.927 65.0568 409.212 64.3894 410.906 63.0548C412.6 61.7201 413.447 59.9491 413.447 57.7418C413.447 55.5344 412.574 53.7634 410.829 52.4288C409.135 51.0941 406.876 50.4268 404.053 50.4268H395.044V65.0568H404.053Z" fill="#101828"/>
<path d="M475.974 83.1518C476.95 85.5131 477.437 87.2584 477.437 88.3878C477.437 90.0818 476.847 91.4678 475.666 92.5458C474.537 93.6238 473.074 94.1628 471.277 94.1628C469.737 94.1628 468.403 93.6494 467.273 92.6228C466.144 91.5448 465.271 90.0561 464.655 88.1568L462.268 81.3808H441.555L439.168 88.1568C438.552 90.0561 437.654 91.5448 436.473 92.6228C435.344 93.6494 434.035 94.1628 432.546 94.1628C430.75 94.1628 429.261 93.6238 428.08 92.5458C426.951 91.4678 426.386 90.0818 426.386 88.3878C426.386 87.2584 426.874 85.5131 427.849 83.1518L441.863 46.4998C443.044 43.4711 444.379 41.2894 445.867 39.9548C447.407 38.6201 449.409 37.9528 451.873 37.9528C454.389 37.9528 456.416 38.6201 457.956 39.9548C459.496 41.2894 460.831 43.4711 461.96 46.4998L475.974 83.1518ZM452.258 52.5058H451.488L445.02 70.4468H458.803L452.258 52.5058Z" fill="#101828"/>
<path d="M504.997 94.9328C500.429 94.9328 496.373 93.9831 492.831 92.0838C489.289 90.1844 486.543 87.5408 484.592 84.1528C482.642 80.7648 481.666 76.9661 481.666 72.7568V60.0518C481.666 55.8424 482.642 52.0694 484.592 48.7328C486.543 45.3448 489.289 42.7011 492.831 40.8018C496.373 38.9024 500.429 37.9528 504.997 37.9528C508.129 37.9528 511.106 38.4661 513.929 39.4928C516.753 40.5194 519.114 41.8541 521.013 43.4968C522.297 44.5748 523.272 45.7298 523.939 46.9618C524.607 48.1938 524.94 49.4258 524.94 50.6578C524.94 52.3004 524.401 53.6608 523.323 54.7388C522.245 55.7654 520.808 56.2788 519.011 56.2788C518.087 56.2788 517.24 56.0734 516.47 55.6628C515.752 55.2521 514.905 54.5078 513.929 53.4298C512.492 51.7871 511.106 50.6321 509.771 49.9648C508.437 49.2461 506.845 48.8868 504.997 48.8868C501.866 48.8868 499.274 49.9391 497.22 52.0438C495.167 54.1484 494.14 56.8178 494.14 60.0518V72.7568C494.14 76.0421 495.167 78.7371 497.22 80.8418C499.274 82.8951 501.866 83.9218 504.997 83.9218C507.051 83.9218 508.822 83.5881 510.31 82.9208C511.799 82.2021 513.262 80.9958 514.699 79.3018C515.623 78.2238 516.47 77.4794 517.24 77.0688C518.01 76.6068 518.857 76.3758 519.781 76.3758C521.578 76.3758 523.015 76.8891 524.093 77.9158C525.171 78.9424 525.71 80.3028 525.71 81.9968C525.71 83.1774 525.3 84.4608 524.478 85.8468C523.708 87.2328 522.579 88.5161 521.09 89.6968C519.191 91.2881 516.855 92.5458 514.083 93.4698C511.363 94.4451 508.334 94.9328 504.997 94.9328Z" fill="#101828"/>
<path d="M570.969 82.3818C572.817 82.3818 574.306 82.9208 575.435 83.9988C576.565 85.0768 577.129 86.3858 577.129 87.9258C577.129 89.4144 576.565 90.6978 575.435 91.7758C574.306 92.8538 572.817 93.3928 570.969 93.3928H540.477C538.732 93.3928 537.269 92.8538 536.088 91.7758C534.908 90.6464 534.317 89.2604 534.317 87.6178V45.2678C534.317 43.6251 534.908 42.2648 536.088 41.1868C537.32 40.0574 538.783 39.4928 540.477 39.4928H570.199C572.047 39.4928 573.536 40.0318 574.665 41.1098C575.795 42.1878 576.359 43.4711 576.359 44.9598C576.359 46.4484 575.795 47.7318 574.665 48.8098C573.536 49.8878 572.047 50.4268 570.199 50.4268H546.637V61.1298H563.192C564.989 61.1298 566.426 61.6688 567.504 62.7468C568.634 63.7734 569.198 65.0054 569.198 66.4428C569.198 67.8801 568.634 69.1378 567.504 70.2158C566.426 71.2424 564.989 71.7558 563.192 71.7558H546.637V82.3818H570.969Z" fill="#101828"/>
<defs>
<linearGradient id="paint0_linear_3450_11604" x1="26.5159" y1="64.7973" x2="94.0953" y2="64.7973" gradientUnits="userSpaceOnUse">
<stop stop-color="#7D49F9"/>
<stop offset="1" stop-color="#45B7FE"/>
</linearGradient>
<linearGradient id="paint1_linear_3450_11604" x1="8.67408" y1="63.9973" x2="111.614" y2="63.9973" gradientUnits="userSpaceOnUse">
<stop stop-color="#465FFF"/>
<stop offset="1" stop-color="#B44197"/>
</linearGradient>
</defs>
</svg>
