<svg width="145" height="32" viewBox="10 0 550 130"  fill="none" xmlns="http://www.w3.org/2000/svg">
<path d="M54.5698 30.4617C58.3233 28.3537 62.9041 28.3538 66.6577 30.4617L88.9223 42.9656C92.8128 45.1506 95.2211 49.2652 95.2211 53.7273V78.1492C95.2211 82.6114 92.8129 86.7268 88.9223 88.9119L66.6577 101.415C62.904 103.523 58.3234 103.523 54.5698 101.415L32.3061 88.9119C28.4154 86.7268 26.0073 82.6114 26.0073 78.1492V53.7273C26.0073 49.2651 28.4154 45.1506 32.3061 42.9656L54.5698 30.4617ZM55.9848 53.6453C54.3391 52.6956 52.2827 53.8838 52.2827 55.7839V76.0935C52.2827 77.9937 54.3391 79.1811 55.9848 78.2312L73.5746 68.0759C75.2198 67.1256 75.2199 64.7507 73.5746 63.8005L55.9848 53.6453Z" fill="url(#paint0_linear_3430_32790)"/>
<path d="M53.6719 1.81567C57.9827 -0.605291 63.2448 -0.605229 67.5557 1.81567L77.5273 7.41528L71.6826 18.1516L71.6768 18.1594L67.2246 15.6594C63.1195 13.354 58.1091 13.3542 54.0039 15.6594L19.3887 35.0999C15.1339 37.4895 12.5003 41.9895 12.5 46.8694V85.1106C12.5003 89.9904 15.134 94.4905 19.3887 96.8801L54.0039 116.321C58.1091 118.626 63.1195 118.626 67.2246 116.321L101.839 96.8801C106.093 94.4905 108.728 89.9903 108.729 85.1106V79.3713H121.228V91.7444C121.227 96.8687 118.462 101.594 113.994 104.104L67.5557 130.185C63.2448 132.606 57.9827 132.606 53.6719 130.185L7.2334 104.104C2.76559 101.594 0.000174205 96.8687 0 91.7444V40.2551C0.000254067 35.1308 2.7655 30.4051 7.2334 27.8958L53.6719 1.81567ZM114.981 73.095C116.644 73.095 118.239 73.7556 119.414 74.9309C120.47 75.9867 121.108 77.3811 121.228 78.8586V79.3635H108.729V78.9573C108.827 77.4432 109.47 76.0102 110.55 74.9309C111.725 73.7557 113.319 73.095 114.981 73.095ZM90.4297 16.6877C91.6431 16.3299 92.9273 16.3512 94.1152 16.7317L113.994 27.8958C118.462 30.405 121.227 35.1308 121.228 40.2551V54.5852C121.108 56.063 120.47 57.4579 119.414 58.5139C118.239 59.6892 116.644 60.3489 114.981 60.3489C113.319 60.3488 111.725 59.689 110.55 58.5139C109.471 57.4347 108.827 56.0015 108.729 54.4875V46.8694C108.728 41.9896 106.093 37.4895 101.839 35.0999L87.9385 27.2932C87.1202 26.5334 86.5126 25.5619 86.1914 24.4729C85.7213 22.8785 85.9034 21.1623 86.6982 19.7024C87.4931 18.2426 88.8355 17.1581 90.4297 16.6877ZM77.9043 7.6272C79.1771 8.43852 80.1263 9.68609 80.5557 11.1418C81.0258 12.7362 80.8427 14.4525 80.0479 15.9124C79.253 17.3722 77.9107 18.4567 76.3164 18.927C74.7364 19.393 73.1658 18.9632 71.7168 18.1819L71.6768 18.1594L77.5273 7.41528L77.9043 7.6272Z" fill="url(#paint1_linear_3430_32790)"/>
<path d="M191.959 38.2803C193.653 38.2803 195.09 38.8449 196.271 39.9743C197.503 41.0523 198.119 42.4126 198.119 44.0553V87.9453C198.119 89.5366 197.503 90.8969 196.271 92.0263C195.09 93.1556 193.653 93.7203 191.959 93.7203C190.265 93.7203 188.802 93.1556 187.57 92.0263C186.389 90.8969 185.799 89.5366 185.799 87.9453V71.6213H165.548V87.9453C165.548 89.5879 164.957 90.9739 163.777 92.1033C162.596 93.1813 161.133 93.7203 159.388 93.7203C157.694 93.7203 156.231 93.1556 154.999 92.0263C153.818 90.8969 153.228 89.5366 153.228 87.9453V44.0553C153.228 42.4126 153.818 41.0523 154.999 39.9743C156.231 38.8449 157.694 38.2803 159.388 38.2803C161.133 38.2803 162.596 38.8449 163.777 39.9743C164.957 41.0523 165.548 42.4126 165.548 44.0553V60.6873H185.799V44.0553C185.799 42.4126 186.389 41.0523 187.57 39.9743C188.802 38.8449 190.265 38.2803 191.959 38.2803Z" fill="white"/>
<path d="M215.036 93.7203C213.342 93.7203 211.879 93.1556 210.647 92.0263C209.466 90.8969 208.876 89.5366 208.876 87.9453V44.0553C208.876 42.4126 209.466 41.0523 210.647 39.9743C211.879 38.8449 213.342 38.2803 215.036 38.2803C216.781 38.2803 218.244 38.8449 219.425 39.9743C220.605 41.0523 221.196 42.4126 221.196 44.0553V87.9453C221.196 89.5879 220.605 90.9739 219.425 92.1033C218.244 93.1813 216.781 93.7203 215.036 93.7203Z" fill="white"/>
<path d="M252.822 94.4903C250.358 94.4903 248.408 93.8999 246.97 92.7193C245.533 91.5386 244.378 89.7676 243.505 87.4063L228.567 46.5963C228.259 45.7236 228.105 44.9023 228.105 44.1323C228.105 42.4383 228.67 41.0523 229.799 39.9743C230.929 38.8449 232.417 38.2803 234.265 38.2803C237.294 38.2803 239.45 40.1283 240.733 43.8243L252.437 78.0893H253.207L264.988 43.8243C266.272 40.1283 268.428 38.2803 271.456 38.2803C273.304 38.2803 274.767 38.8449 275.845 39.9743C276.975 41.0523 277.539 42.4126 277.539 44.0553C277.539 44.8766 277.385 45.7236 277.077 46.5963L262.216 87.4063C261.344 89.7676 260.163 91.5386 258.674 92.7193C257.237 93.8999 255.286 94.4903 252.822 94.4903Z" fill="white"/>
<path d="M320.945 81.9393C322.793 81.9393 324.282 82.4783 325.411 83.5563C326.54 84.6343 327.105 85.9433 327.105 87.4833C327.105 88.9719 326.54 90.2553 325.411 91.3333C324.282 92.4113 322.793 92.9503 320.945 92.9503H290.453C288.708 92.9503 287.245 92.4113 286.064 91.3333C284.883 90.2039 284.293 88.8179 284.293 87.1753V44.8253C284.293 43.1826 284.883 41.8223 286.064 40.7443C287.296 39.6149 288.759 39.0503 290.453 39.0503H320.175C322.023 39.0503 323.512 39.5893 324.641 40.6673C325.77 41.7453 326.335 43.0286 326.335 44.5173C326.335 46.0059 325.77 47.2893 324.641 48.3673C323.512 49.4453 322.023 49.9843 320.175 49.9843H296.613V60.6873H313.168C314.965 60.6873 316.402 61.2263 317.48 62.3043C318.609 63.3309 319.174 64.5629 319.174 66.0003C319.174 67.4376 318.609 68.6953 317.48 69.7733C316.402 70.7999 314.965 71.3133 313.168 71.3133H296.613V81.9393H320.945Z" fill="white"/>
<path d="M351.863 94.4903C348.783 94.4903 345.806 94.0026 342.931 93.0273C340.056 92.1033 337.618 90.7686 335.616 89.0233C332.639 86.4566 331.15 83.9669 331.15 81.5543C331.15 79.9116 331.689 78.5769 332.767 77.5503C333.896 76.4723 335.334 75.9333 337.079 75.9333C337.952 75.9333 338.747 76.1386 339.466 76.5493C340.236 76.9599 341.16 77.7043 342.238 78.7823C343.881 80.5276 345.446 81.7596 346.935 82.4783C348.475 83.1456 350.272 83.4793 352.325 83.4793C355.508 83.4793 357.895 82.9146 359.486 81.7853C361.129 80.6046 361.95 79.1673 361.95 77.4733C361.95 76.2926 361.462 75.2916 360.487 74.4703C359.563 73.6489 358.382 72.9816 356.945 72.4683C355.559 71.9036 353.557 71.2363 350.939 70.4663C347.089 69.3369 343.906 68.2333 341.391 67.1553C338.927 66.0773 336.797 64.4859 335 62.3813C333.203 60.2766 332.305 57.5559 332.305 54.2193C332.305 51.0879 333.126 48.2646 334.769 45.7493C336.412 43.2339 338.773 41.2319 341.853 39.7433C344.984 38.2546 348.68 37.5103 352.941 37.5103C356.072 37.5103 359.024 37.9979 361.796 38.9733C364.619 39.9486 366.981 41.2833 368.88 42.9773C370.163 44.1579 371.139 45.3899 371.806 46.6733C372.525 47.9053 372.884 49.0859 372.884 50.2153C372.884 51.8579 372.319 53.2183 371.19 54.2963C370.112 55.3229 368.7 55.8363 366.955 55.8363C365.98 55.8363 365.107 55.6309 364.337 55.2203C363.618 54.8096 362.746 54.0396 361.719 52.9103C360.23 51.2676 358.793 50.1126 357.407 49.4453C356.072 48.7779 354.455 48.4443 352.556 48.4443C350.092 48.4443 348.167 48.9576 346.781 49.9843C345.446 51.0109 344.779 52.2686 344.779 53.7573C344.779 54.9379 345.241 55.9389 346.165 56.7603C347.14 57.5816 348.321 58.2746 349.707 58.8393C351.144 59.3526 353.172 59.9943 355.79 60.7643C359.691 61.8936 362.874 62.9973 365.338 64.0753C367.802 65.1533 369.932 66.7446 371.729 68.8493C373.526 70.9026 374.424 73.5976 374.424 76.9343C374.424 80.2196 373.551 83.1969 371.806 85.8663C370.061 88.5356 367.494 90.6403 364.106 92.1803C360.718 93.7203 356.637 94.4903 351.863 94.4903Z" fill="white"/>
<path d="M404.053 39.0503C408.467 39.0503 412.317 39.7946 415.603 41.2833C418.939 42.7719 421.48 44.9023 423.226 47.6743C425.022 50.3949 425.921 53.6033 425.921 57.2993C425.921 60.9953 425.022 64.2293 423.226 67.0013C421.48 69.7733 418.939 71.9036 415.603 73.3923C412.317 74.8809 408.467 75.6253 404.053 75.6253H395.044V87.9453C395.044 89.5879 394.453 90.9739 393.273 92.1033C392.092 93.1813 390.629 93.7203 388.884 93.7203C387.19 93.7203 385.727 93.1556 384.495 92.0263C383.314 90.8969 382.724 89.5366 382.724 87.9453V44.8253C382.724 43.1826 383.314 41.8223 384.495 40.7443C385.675 39.6149 387.138 39.0503 388.884 39.0503H404.053ZM404.053 64.6143C406.927 64.6143 409.212 63.9469 410.906 62.6123C412.6 61.2776 413.447 59.5066 413.447 57.2993C413.447 55.0919 412.574 53.3209 410.829 51.9863C409.135 50.6516 406.876 49.9843 404.053 49.9843H395.044V64.6143H404.053Z" fill="white"/>
<path d="M475.974 82.7093C476.95 85.0706 477.437 86.8159 477.437 87.9453C477.437 89.6393 476.847 91.0253 475.666 92.1033C474.537 93.1813 473.074 93.7203 471.277 93.7203C469.737 93.7203 468.403 93.2069 467.273 92.1803C466.144 91.1023 465.271 89.6136 464.655 87.7143L462.268 80.9383H441.555L439.168 87.7143C438.552 89.6136 437.654 91.1023 436.473 92.1803C435.344 93.2069 434.035 93.7203 432.546 93.7203C430.75 93.7203 429.261 93.1813 428.08 92.1033C426.951 91.0253 426.386 89.6393 426.386 87.9453C426.386 86.8159 426.874 85.0706 427.849 82.7093L441.863 46.0573C443.044 43.0286 444.379 40.8469 445.867 39.5123C447.407 38.1776 449.409 37.5103 451.873 37.5103C454.389 37.5103 456.416 38.1776 457.956 39.5123C459.496 40.8469 460.831 43.0286 461.96 46.0573L475.974 82.7093ZM452.258 52.0633H451.488L445.02 70.0043H458.803L452.258 52.0633Z" fill="white"/>
<path d="M504.997 94.4903C500.429 94.4903 496.373 93.5406 492.831 91.6413C489.289 89.7419 486.543 87.0983 484.592 83.7103C482.642 80.3223 481.666 76.5236 481.666 72.3143V59.6093C481.666 55.3999 482.642 51.6269 484.592 48.2903C486.543 44.9023 489.289 42.2586 492.831 40.3593C496.373 38.4599 500.429 37.5103 504.997 37.5103C508.129 37.5103 511.106 38.0236 513.929 39.0503C516.753 40.0769 519.114 41.4116 521.013 43.0543C522.297 44.1323 523.272 45.2873 523.939 46.5193C524.607 47.7513 524.94 48.9833 524.94 50.2153C524.94 51.8579 524.401 53.2183 523.323 54.2963C522.245 55.3229 520.808 55.8363 519.011 55.8363C518.087 55.8363 517.24 55.6309 516.47 55.2203C515.752 54.8096 514.905 54.0653 513.929 52.9873C512.492 51.3446 511.106 50.1896 509.771 49.5223C508.437 48.8036 506.845 48.4443 504.997 48.4443C501.866 48.4443 499.274 49.4966 497.22 51.6013C495.167 53.7059 494.14 56.3753 494.14 59.6093V72.3143C494.14 75.5996 495.167 78.2946 497.22 80.3993C499.274 82.4526 501.866 83.4793 504.997 83.4793C507.051 83.4793 508.822 83.1456 510.31 82.4783C511.799 81.7596 513.262 80.5533 514.699 78.8593C515.623 77.7813 516.47 77.0369 517.24 76.6263C518.01 76.1643 518.857 75.9333 519.781 75.9333C521.578 75.9333 523.015 76.4466 524.093 77.4733C525.171 78.4999 525.71 79.8603 525.71 81.5543C525.71 82.7349 525.3 84.0183 524.478 85.4043C523.708 86.7903 522.579 88.0736 521.09 89.2543C519.191 90.8456 516.855 92.1033 514.083 93.0273C511.363 94.0026 508.334 94.4903 504.997 94.4903Z" fill="white"/>
<path d="M570.969 81.9393C572.817 81.9393 574.306 82.4783 575.435 83.5563C576.565 84.6343 577.129 85.9433 577.129 87.4833C577.129 88.9719 576.565 90.2553 575.435 91.3333C574.306 92.4113 572.817 92.9503 570.969 92.9503H540.477C538.732 92.9503 537.269 92.4113 536.088 91.3333C534.908 90.2039 534.317 88.8179 534.317 87.1753V44.8253C534.317 43.1826 534.908 41.8223 536.088 40.7443C537.32 39.6149 538.783 39.0503 540.477 39.0503H570.199C572.047 39.0503 573.536 39.5893 574.665 40.6673C575.795 41.7453 576.359 43.0286 576.359 44.5173C576.359 46.0059 575.795 47.2893 574.665 48.3673C573.536 49.4453 572.047 49.9843 570.199 49.9843H546.637V60.6873H563.192C564.989 60.6873 566.426 61.2263 567.504 62.3043C568.634 63.3309 569.198 64.5629 569.198 66.0003C569.198 67.4376 568.634 68.6953 567.504 69.7733C566.426 70.7999 564.989 71.3133 563.192 71.3133H546.637V81.9393H570.969Z" fill="white"/>
<defs>
<linearGradient id="paint0_linear_3430_32790" x1="26.5159" y1="64.3544" x2="94.0953" y2="64.3544" gradientUnits="userSpaceOnUse">
<stop stop-color="#7D49F9"/>
<stop offset="1" stop-color="#45B7FE"/>
</linearGradient>
<linearGradient id="paint1_linear_3430_32790" x1="8.67408" y1="63.555" x2="111.614" y2="63.555" gradientUnits="userSpaceOnUse">
<stop stop-color="#465FFF"/>
<stop offset="1" stop-color="#B44197"/>
</linearGradient>
</defs>
</svg>