<svg xmlns="http://www.w3.org/2000/svg" viewBox="0 0 400 400" width="100%" height="100%">
  <circle cx="200" cy="200" r="140" fill="#10B981" opacity="0.1" />

  <rect x="60" y="100" width="280" height="200" rx="12" fill="#1E293B" stroke="#475569" stroke-width="2"/>

  <rect x="60" y="100" width="280" height="40" rx="12" fill="#0066FF" />

  <circle cx="85" cy="120" r="5" fill="#F59E0B" /> <circle cx="105" cy="120" r="5" fill="#3B82F6" /> <circle cx="125" cy="120" r="5" fill="#10B981" /> <g transform="translate(90, 165)">
    <rect x="0" y="0" width="50" height="60" rx="6" fill="#F8FAFC" />
    <path d="M12 0 v-12 a13 13 0 0 1 26 0 v12" fill="none" stroke="#94A3B8" stroke-width="4" />
    <rect x="0" y="40" width="50" height="20" rx="6" fill="#0066FF" opacity="0.15"/>
    <circle cx="25" cy="40" r="4" fill="#0066FF"/>
  </g>

  <g transform="translate(165, 155)">
    <rect x="0" y="0" width="60" height="70" rx="6" fill="#F8FAFC" />
    <path d="M15 0 v-15 a15 15 0 0 1 30 0 v15" fill="none" stroke="#94A3B8" stroke-width="4" />
    <rect x="0" y="30" width="60" height="40" rx="6" fill="#F59E0B" opacity="0.15"/>
    <rect x="15" y="45" width="30" height="6" rx="3" fill="#F59E0B" opacity="0.4"/>
    <circle cx="30" cy="30" r="5" fill="#F59E0B"/>
  </g>

  <g transform="translate(250, 165)">
    <rect x="0" y="0" width="50" height="60" rx="6" fill="#F8FAFC" />
    <path d="M12 0 v-12 a13 13 0 0 1 26 0 v12" fill="none" stroke="#94A3B8" stroke-width="4" />
    <rect x="0" y="20" width="50" height="40" rx="6" fill="#10B981" opacity="0.15"/>
    <circle cx="25" cy="20" r="4" fill="#10B981"/>
  </g>

  <rect x="110" y="245" width="180" height="32" rx="16" fill="#10B981" />
  <path d="M265 261l3 3 7-7" stroke="#FFFFFF" stroke-width="2.5" fill="none" stroke-linecap="round" stroke-linejoin="round"/>
</svg>
