<svg xmlns="http://www.w3.org/2000/svg" viewBox="0 0 400 400" width="100%" height="100%">
  <circle cx="200" cy="200" r="140" fill="#10B981" opacity="0.1" />

  <path d="M40 280 L360 280 L380 300 L20 300 Z" fill="#64748B" />
  <rect x="160" y="280" width="80" height="6" fill="#94A3B8" />

  <rect x="65" y="110" width="270" height="170" rx="8" fill="#1E293B" stroke="#475569" stroke-width="4"/>

  <path d="M65 130 L335 130 L345 165 L55 165 Z" fill="#475569" />
  <path d="M55 165 a 14.5 14.5 0 0 0 29 0 a 14.5 14.5 0 0 0 29 0 a 14.5 14.5 0 0 0 29 0 a 14.5 14.5 0 0 0 29 0 a 14.5 14.5 0 0 0 29 0 a 14.5 14.5 0 0 0 29 0 a 14.5 14.5 0 0 0 29 0 a 14.5 14.5 0 0 0 29 0 a 14.5 14.5 0 0 0 29 0 a 14.5 14.5 0 0 0 29 0" fill="#475569" />

  <path d="M94 130 L123 130 L133 165 L104 165 Z" fill="#3B82F6" />
  <path d="M152 130 L181 130 L191 165 L162 165 Z" fill="#3B82F6" />
  <path d="M210 130 L239 130 L249 165 L220 165 Z" fill="#3B82F6" />
  <path d="M268 130 L297 130 L307 165 L278 165 Z" fill="#3B82F6" />

  <rect x="110" y="210" width="55" height="50" rx="4" fill="#F59E0B" />
  <path d="M110 225 L165 225 M137.5 210 L137.5 260" stroke="#D97706" stroke-width="3" />
  <rect x="175" y="190" width="50" height="70" rx="4" fill="#F59E0B" />
  <path d="M175 210 L225 210 M200 190 L200 260" stroke="#D97706" stroke-width="3" />
  <rect x="235" y="220" width="45" height="40" rx="4" fill="#F59E0B" />
  <path d="M235 235 L280 235 M257.5 220 L257.5 260" stroke="#D97706" stroke-width="3" />

  <path d="M80 100 L140 60 L190 80 L260 30 L300 50" fill="none" stroke="#10B981" stroke-width="6" stroke-linecap="round" stroke-linejoin="round"/>
  <circle cx="300" cy="50" r="7" fill="#10B981" />
</svg>
